<?xml version="1.0" ?>
<!DOCTYPE svg  PUBLIC '-//W3C//DTD SVG 1.1//EN'  'http://www.w3.org/Graphics/SVG/1.1/DTD/svg11.dtd'>
<!-- Uploaded to: SVG Repo, www.svgrepo.com, Generator: SVG Repo Mixer Tools -->
<svg fill="#000000" width="800px" height="800px" viewBox="0 0 512 512" version="1.1" xml:space="preserve" xmlns="http://www.w3.org/2000/svg" xmlns:xlink="http://www.w3.org/1999/xlink">
<g id="_x33_43_x2C__hill_x2C__landscape_x2C__nature_x2C__mountain_x2C__sun">
<g>
<path d="M252.296,129.267c7.001,0,13.327,2.858,17.919,7.429    c4.594,4.592,7.43,10.941,7.43,17.942s-2.836,13.327-7.43,17.921c-4.593,4.592-10.918,7.428-17.919,7.428    s-13.351-2.836-17.942-7.428c-4.569-4.594-7.43-10.92-7.43-17.921s2.86-13.351,7.43-17.942    C238.946,132.125,245.295,129.267,252.296,129.267 M379.582,338.316l-0.022-0.202v-0.046l0,0v-0.045l0,0l0.022-0.066v-0.023    v-0.067v-0.022v-0.022l0,0v-0.022v-0.022v-0.022v-0.023v-0.021l0.021-0.023v-0.021v-0.022v-0.045l0,0v-0.022l0.023-0.023v-0.021    v-0.023v-0.022v-0.022l0.045-0.09v-0.022v-0.022v-0.022l0.022-0.067l0,0l0.022-0.045l0,0l0.022-0.113h0.022l0.022-0.067    l5.921-14.678l0.022-0.067h0.022l0.023-0.045v-0.023l0.021-0.044v-0.022l0.023-0.023l0.022-0.021l0.044-0.091l0.023-0.044l0,0    l0.067-0.113l0,0c0.202-0.293,0.45-0.563,0.743-0.742l0,0l0.045-0.047l0,0l0.044-0.021v-0.022l0.069-0.022l0,0l0.043-0.022l0,0    l0.068-0.046l0,0l0.066-0.021l0,0l0.047-0.046l0.068-0.022c4.793-2.408,7.248-4.457,8.801-6.911    c0.99-1.756,1.622-3.827,2.41-6.461c0.719-2.296,1.529-4.998,2.746-8.194l0.022-0.022l0.044-0.136l0,0l0.112-0.293    c0.271-0.72,0.833-1.35,1.645-1.643c0.606-0.225,1.282-0.203,1.868,0l0,0c0.742,0.27,1.372,0.855,1.666,1.643l0.181,0.52    l0.022,0.021l0.021,0.112c1.08,2.837,1.848,5.336,2.521,7.564c0.879,2.813,1.599,5.155,2.702,7.114    c1.575,2.498,4.008,4.592,8.509,6.708c0.608,0.293,1.104,0.811,1.374,1.486l5.943,14.7l0.022,0.045l0,0l0.022,0.046l0,0v0.021    v0.022l0,0l0.044,0.091v0.022c0.112,0.338,0.136,0.698,0.112,1.035l3.445,8.51h38.046l-24.066-32.688    c-2.543-3.445-4.906-6.552-7.068-9.365c-10.198-13.395-15.961-20.959-22.175-41.604l-1.012-3.332    c-4.188-13.957-7.971-26.475-19.768-35.727l-4.569-3.535c-8.285-6.303-15.286-11.615-22.265-20.756    c-4.795-6.304-8.308-11.459-11.549-16.209c-5.921-8.689-10.918-16.029-21.298-26.452c-7.99,10.108-14.158,16.119-22.534,24.269    l-5.357,5.223l-2.86,2.881c-11.977,12.473-17.896,23.145-23.84,33.838c-4.368,7.856-8.758,15.735-15.512,24.447    c-1.485,1.914-2.611,2.949-3.377,3.625l-0.135,0.111c-0.158,0.136-0.158,0.158,0.09,1.307c1.779,7.677,2.432,16.344,2.995,24.111    l0.022,0.449c0.923,12.518,2.589,21.027,5.042,27.668c3.806,9.344,9.456,15.961,15.759,23.368    c4.256,4.997,8.779,10.312,13.282,16.975l1.035,1.531c19.88-0.158,39.804-0.136,59.682-0.136l16.164,0.022L379.582,338.316z     M312.518,221.928c-1.059,1.058-2.814,1.08-3.896,0c-1.079-1.08-1.079-2.814-0.021-3.896l6.438-6.348    c6.844-6.663,11.774-11.437,18.482-20.193c0.924-1.193,2.657-1.419,3.871-0.496l0.227,0.226    c9.59,9.342,13.777,15.512,18.843,22.917c2.454,3.647,5.155,7.587,8.78,12.338c5.02,6.573,10.197,10.513,16.321,15.173l3.624,2.77    c10.332,8.126,13.463,18.527,16.975,30.121l0.742,2.498c0.451,1.464-0.383,2.995-1.846,3.445c-1.464,0.45-2.994-0.383-3.445-1.846    l-0.742-2.477c-3.22-10.738-6.124-20.352-15.105-27.397l-3.558-2.725c-6.438-4.907-11.886-9.05-17.334-16.208    c-3.737-4.886-6.483-8.894-8.982-12.586c-4.481-6.572-8.263-12.134-15.939-19.9c-5.987,7.52-10.716,12.111-17.063,18.28    L312.518,221.928z M81.989,305.876c-1.507,0-2.769-1.237-2.769-2.769c0-1.508,1.262-2.77,2.769-2.77h36.922v-47.456v-20.171    v-0.045v-6.057l15.623-13.687c1.149-0.991,1.262-2.747,0.248-3.896c-0.99-1.125-2.747-1.26-3.871-0.246l-11.999,10.512v-15.938    c0-1.531-1.239-2.77-2.769-2.77c-1.532,0-2.769,1.238-2.769,2.77v32.529l-9.591-10.107c-1.058-1.104-2.792-1.148-3.894-0.113    c-1.104,1.059-1.149,2.814-0.112,3.918l13.598,14.34v7.316l-0.227,0.135c-1.53,1.014-3.218,1.847-5.02,2.387    c-1.711,0.518-3.58,0.811-5.515,0.811c-3.603,0-7.001-1.013-9.837-2.769c-2.95-1.802-5.382-4.435-6.979-7.542    c-0.698-1.352-2.365-1.891-3.715-1.193c-0.27,0.135-0.497,0.293-0.698,0.518c-1.622,1.328-3.511,2.432-5.538,3.175    s-4.232,1.148-6.529,1.148c-5.199,0-9.927-2.116-13.349-5.538c-3.4-3.4-5.517-8.127-5.517-13.327c0-3.489,0.946-6.755,2.567-9.523    c1.688-2.882,4.141-5.29,7.068-6.934c1.328-0.743,1.802-2.431,1.058-3.76l-0.337-0.473c-1.283-1.62-2.341-3.467-3.04-5.493    c-0.698-1.936-1.081-4.074-1.081-6.28c0-5.224,2.116-9.929,5.538-13.351c3.399-3.422,8.128-5.516,13.351-5.516l0.247-0.021    c1.463-0.023,2.657-1.217,2.68-2.702c0-0.405-0.091-0.811-0.225-1.171c-0.541-1.193-0.946-2.432-1.216-3.715    c-0.247-1.237-0.382-2.544-0.382-3.917c0-5.2,2.093-9.927,5.515-13.351c3.422-3.398,8.126-5.515,13.35-5.515    c0.877,0,1.734,0.067,2.499,0.157c0.788,0.113,1.62,0.271,2.43,0.496c1.463,0.382,2.95-0.451,3.378-1.869    c1.237-3.805,3.669-7.068,6.843-9.365c3.106-2.229,6.933-3.557,11.076-3.557c5.201,0,9.928,2.115,13.327,5.516    c3.422,3.422,5.538,8.127,5.538,13.35l-0.022,0.99c-0.023,1.51,1.193,2.77,2.702,2.792l1.711-0.136l1.283-0.045    c4.569,0,8.758,1.621,11.999,4.301c3.332,2.746,5.696,6.618,6.552,11.008c0.202,1.126,1.058,1.959,2.116,2.185    c4.299,0.923,8.037,3.31,10.691,6.596c2.613,3.242,4.166,7.361,4.166,11.841c0,3.107-0.742,6.034-2.05,8.578    c-1.372,2.68-3.353,4.975-5.762,6.73c-1.237,0.901-1.508,2.612-0.63,3.85l0.248,0.293c1.395,1.645,2.521,3.558,3.287,5.605    c0.742,2.049,1.147,4.255,1.147,6.574c0,3.084-0.719,5.988-2.025,8.532c-1.374,2.679-3.332,4.997-5.719,6.731    c-0.563,0.405-0.923,0.968-1.081,1.598c-0.99,4.211-3.399,7.879-6.663,10.445c-3.197,2.545-7.271,4.053-11.708,4.053    c-1.936,0-3.782-0.293-5.493-0.811c-1.8-0.54-3.488-1.373-5.02-2.387c-0.969-0.652-2.183-0.607-3.085,0    c-1.53,1.014-3.218,1.847-5.019,2.387c-1.713,0.518-3.559,0.811-5.517,0.811c-0.765,0-1.553-0.045-2.295-0.135v45.902h3.309    c1.53,0,2.769,1.262,2.769,2.77c0,1.531-1.239,2.769-2.769,2.769h-6.012h-0.066h-0.068H81.989z M146.149,311.932    c1.509,0,2.769,1.239,2.769,2.77c0,1.531-1.26,2.77-2.769,2.77h-29.49c-1.532,0-2.769-1.238-2.769-2.77    c0-1.53,1.237-2.77,2.769-2.77H146.149z M249.527,112.854c0-1.509,1.239-2.769,2.769-2.769c1.509,0,2.769,1.26,2.769,2.769v9.636    c0,1.509-1.26,2.746-2.769,2.746c-1.53,0-2.769-1.237-2.769-2.746V112.854z M287.079,131.359c1.328-0.764,3.016-0.293,3.758,1.014    c0.766,1.328,0.316,3.017-1.012,3.76l-8.33,4.818c-1.306,0.742-2.994,0.291-3.761-1.014c-0.742-1.328-0.291-3.017,1.015-3.783    L287.079,131.359z M289.848,173.121c1.306,0.765,1.755,2.453,0.989,3.781c-0.742,1.307-2.453,1.756-3.758,0.991l-8.33-4.796    c-1.306-0.766-1.757-2.453-1.015-3.781c0.767-1.306,2.455-1.757,3.783-0.99L289.848,173.121z M255.065,196.398    c0,1.531-1.26,2.769-2.769,2.769c-1.53,0-2.769-1.237-2.769-2.769v-9.613c0-1.531,1.239-2.769,2.769-2.769    c1.509,0,2.769,1.237,2.769,2.769V196.398z M217.493,177.894c-1.306,0.765-2.996,0.315-3.761-0.991    c-0.765-1.328-0.314-3.017,1.014-3.781l8.328-4.795c1.308-0.767,2.996-0.315,3.761,0.99c0.765,1.328,0.315,3.016-1.013,3.781    L217.493,177.894z M214.746,136.133c-1.307-0.743-1.779-2.432-1.014-3.76c0.744-1.307,2.432-1.777,3.761-1.014l8.33,4.795    c1.306,0.767,1.777,2.455,1.013,3.783c-0.765,1.305-2.453,1.756-3.761,1.014L214.746,136.133z M268.168,121.612    c0.742-1.306,2.453-1.757,3.759-1.013c1.305,0.765,1.779,2.453,1.014,3.759l-2.927,5.088c-0.765,1.329-2.455,1.778-3.761,1.014    c-1.328-0.743-1.777-2.433-1.012-3.76L268.168,121.612z M288.811,151.869c1.532,0,2.769,1.237,2.769,2.769    c0,1.509-1.236,2.769-2.769,2.769h-5.853c-1.531,0-2.769-1.26-2.769-2.769c0-1.531,1.237-2.769,2.769-2.769H288.811z     M272.94,184.895c0.766,1.306,0.314,2.994-1.014,3.76c-1.306,0.766-2.994,0.314-3.759-1.014l-2.927-5.064    c-0.766-1.328-0.316-3.017,0.991-3.783c1.326-0.765,3.017-0.314,3.781,1.014L272.94,184.895z M236.403,187.641    c-0.744,1.328-2.455,1.779-3.76,1.014c-1.329-0.766-1.779-2.454-1.013-3.76l2.948-5.088c0.744-1.328,2.455-1.778,3.76-1.014    c1.328,0.767,1.777,2.455,1.013,3.783L236.403,187.641z M215.759,157.406c-1.53,0-2.769-1.26-2.769-2.769    c0-1.531,1.239-2.769,2.769-2.769h5.875c1.509,0,2.748,1.237,2.748,2.769c0,1.509-1.239,2.769-2.748,2.769H215.759z     M231.63,124.358c-0.744-1.306-0.293-2.994,1.013-3.759c1.328-0.744,3.016-0.293,3.76,1.013l2.948,5.088    c0.744,1.327,0.293,3.017-1.013,3.76c-1.328,0.765-3.017,0.315-3.76-1.014L231.63,124.358z M253.423,364.543    c1.53,0,2.769,1.262,2.769,2.77c0,1.531-1.239,2.77-2.769,2.77H76.677c-1.532,0-2.769-1.238-2.769-2.77    c0-1.508,1.237-2.77,2.769-2.77H253.423z M175.935,399.213c-1.532,0-2.769-1.238-2.769-2.77c0-1.508,1.237-2.746,2.769-2.746    h55.064c1.532,0,2.769,1.238,2.769,2.746c0,1.531-1.237,2.77-2.769,2.77H175.935z M320.238,383.342c0-1.531,1.238-2.77,2.77-2.77    s2.769,1.238,2.769,2.77v13.058h75.238v-24.651c-8.241,0.54-16.458,2.769-24.652,6.348l4.863-12.021    c0.563-1.396-0.136-3.016-1.531-3.579l-0.495-0.136l4.728-11.66c0.563-1.42-0.135-3.018-1.554-3.602l-0.338-0.113l0.046-0.136    l3.22-7.97l0.09-0.247v-0.022l0.066-0.271v-0.022v-0.021l0.023-0.023l0,0v-0.021v-0.023v-0.067v-0.022    c0.022-0.18,0.022-0.36,0.022-0.54l4.907-12.18c5.74-2.679,8.488-5.155,10.288-8.419c1.418-2.297,2.229-4.886,3.175-8.15    c0.969,3.242,1.823,5.943,3.31,8.33c1.823,3.354,4.569,5.966,9.951,8.284l4.885,12.112l0,0c-0.022,0.383,0.021,0.765,0.156,1.147    l0,0v0.046h0.022v0.021l0,0l0.023,0.046l0,0l3.151,7.812c-0.135,0.022-0.293,0.066-0.429,0.135h-0.021l0,0l-0.046,0.022v0.022    l-0.112,0.045h-0.022l-0.112,0.068l0,0l-0.022,0.022l-0.046,0.022l0,0l-0.023,0.022l-0.044,0.022l0,0    c-0.091,0.068-0.203,0.135-0.315,0.248l0,0l-0.158,0.156L424,347.457l0,0l-0.092,0.111l0,0c-0.135,0.158-0.247,0.316-0.337,0.52    l-0.022,0.021l0,0c-0.09,0.203-0.158,0.428-0.203,0.631l0,0c-0.112,0.539-0.067,1.104,0.135,1.598l0.046,0.113l0,0l0.022,0.067    l0.112,0.315l4.503,11.143c-0.788,0.158-1.51,0.676-1.915,1.465c-0.359,0.72-0.359,1.553-0.089,2.25l4.796,11.887    c-8.105-3.85-16.255-5.74-24.427-5.943v24.765h50.811v-28.861c0-1.531,1.239-2.769,2.77-2.769s2.769,1.237,2.769,2.769v28.861    h20.352c1.508,0,2.77,1.237,2.77,2.746c0,1.531-1.262,2.769-2.77,2.769h-23.054h-0.066h-0.068H403.85h-0.089h-0.068h-80.616    h-0.068h-0.067h-16.479c-1.532,0-2.77-1.237-2.77-2.769c0-1.509,1.237-2.746,2.77-2.746h13.776V383.342z M95.722,393.697    c1.532,0,2.769,1.238,2.769,2.746c0,1.531-1.237,2.77-2.769,2.77H28.748c-1.509,0-2.746-1.238-2.746-2.77    c0-1.508,1.237-2.746,2.746-2.746H95.722z M428.704,192.166c-2.251-4.502-12.81,0.766-12.832,0.789    c-1.418,0.697-3.129,0.134-3.851-1.284c-0.696-1.419-0.135-3.151,1.285-3.872c0.044,0,11.66-5.809,17.963-1.283    c6.305-4.525,17.898,1.283,17.942,1.283c1.42,0.721,2.004,2.453,1.284,3.872c-0.698,1.418-2.432,1.981-3.85,1.284    c-0.022-0.023-10.559-5.291-12.81-0.789l0,0l-0.046,0.067l0,0l-0.022,0.067l0,0l-0.044,0.045v0.022l-0.022,0.046h-0.023    l-0.022,0.067l0,0l-0.044,0.045v0.022l-0.046,0.045l0,0l-0.022,0.045l-0.022,0.023l-0.021,0.044h-0.022l-0.023,0.046l-0.022,0.021    l-0.022,0.023l-0.023,0.022l-0.044,0.045l0,0l-0.045,0.044v0.023l-0.046,0.023l-0.021,0.021l-0.022,0.022l-0.022,0.022    l-0.023,0.022l-0.022,0.022l-0.044,0.022l-0.022,0.022l-0.023,0.023l-0.022,0.021l-0.046,0.023l-0.021,0.021l-0.046,0.022v0.022    l-0.046,0.023h-0.022l-0.044,0.045l0,0l-0.068,0.022v0.022l-0.044,0.022h-0.023l-0.045,0.044l0,0l-0.066,0.023l0,0l-0.069,0.023    v0.021l-0.044,0.022h-0.022l-0.046,0.022h-0.022l-0.044,0.022h-0.022l-0.046,0.022l-0.022,0.023h-0.044l-0.023,0.021h-0.045    h-0.023l-0.044,0.023h-0.022l-0.046,0.022h-0.045h-0.021l-0.046,0.022h-0.022h-0.046l-0.021,0.022h-0.112h-0.023l-0.045,0.022    h-0.023h-0.044h-0.022h-0.046h-0.022h-0.044h-0.022l-0.046,0.021h-0.022h-0.044h-0.023l-0.045-0.021h-0.023h-0.066l0,0h-0.068H431    h-0.044h-0.023l-0.046-0.022h-0.022h-0.112l-0.021-0.022h-0.046h-0.023l-0.045-0.022h-0.021h-0.045l-0.023-0.022h-0.046    l-0.021-0.023h-0.046h-0.022l-0.046-0.021h-0.021l-0.046-0.023l-0.023-0.022h-0.022l-0.044-0.022h-0.022l-0.046-0.022H430.1    l-0.044-0.022l-0.023-0.021l-0.045-0.023h-0.023l-0.044-0.023l0,0l-0.068-0.044l0,0l-0.066-0.022v-0.022l-0.046-0.022h-0.022    l-0.044-0.045l0,0l-0.046-0.023l-0.022-0.022l-0.046-0.022l-0.021-0.021l-0.023-0.023l-0.022-0.021l-0.046-0.023l-0.022-0.022    l-0.021-0.022l-0.022-0.022l-0.022-0.022l-0.023-0.022l-0.045-0.022l-0.021-0.021l-0.022-0.023l-0.023-0.023l-0.022-0.044h-0.022    l-0.023-0.045l-0.021-0.022l-0.023-0.023l-0.022-0.021l-0.046-0.046l0,0l-0.044-0.044v-0.023l-0.022-0.045h-0.022l-0.023-0.045    l-0.022-0.022l-0.023-0.045h-0.021l-0.022-0.067l0,0l-0.046-0.046v-0.022l-0.022-0.045l0,0l-0.044-0.067l0,0L428.704,192.166    L428.704,192.166z M399.844,146.219c-2.387-4.277-12.742,0.9-12.766,0.9c-1.418,0.72-3.151,0.135-3.85-1.283    c-0.721-1.419-0.135-3.13,1.283-3.85c0.045-0.023,11.639-5.809,17.943-1.284c6.303-4.524,17.92,1.261,17.965,1.284    c1.418,0.72,2.002,2.431,1.283,3.85c-0.698,1.418-2.433,2.003-3.851,1.283c-0.022,0-10.558-5.268-12.81-0.766    c-0.698,1.418-2.43,2.003-3.85,1.283C400.563,147.321,400.092,146.826,399.844,146.219z M381.226,167.178    c-2.251-4.504-12.788,0.766-12.81,0.787c-1.419,0.699-3.152,0.113-3.85-1.305c-0.721-1.42-0.136-3.131,1.283-3.851    c0.021-0.022,11.639-5.808,17.942-1.282c6.303-4.525,17.919,1.26,17.965,1.282c1.418,0.72,1.98,2.431,1.282,3.851    c-0.719,1.418-2.43,2.004-3.85,1.305c-0.021-0.021-10.58-5.291-12.831-0.787l0,0l-0.022,0.066l0,0l-0.046,0.068l0,0l-0.022,0.045    v0.022l-0.045,0.045l0,0l-0.045,0.046v0.021l-0.022,0.045l-0.022,0.022l-0.021,0.046h-0.023l-0.022,0.045v0.022l-0.045,0.022    l-0.022,0.022l-0.022,0.044l-0.022,0.023l-0.023,0.023l-0.021,0.021l-0.023,0.022l-0.022,0.022l-0.021,0.045h-0.022l-0.023,0.045    l-0.021,0.023l-0.046,0.022l-0.022,0.022l-0.022,0.021l-0.022,0.023l-0.022,0.021l-0.022,0.023l-0.045,0.021l-0.023,0.023    l-0.021,0.022l-0.022,0.022l-0.046,0.022h-0.021l-0.045,0.044l0,0l-0.046,0.047h-0.022l-0.045,0.021l0,0l-0.067,0.045l0,0    l-0.067,0.022v0.022l-0.045,0.023h-0.023l-0.045,0.021h-0.022l-0.044,0.023l-0.023,0.022l-0.045,0.022h-0.022l-0.045,0.022h-0.022    l-0.045,0.022h-0.023l-0.021,0.021h-0.045l-0.022,0.023h-0.046l-0.021,0.023h-0.046h-0.022l-0.045,0.021h-0.021l-0.045,0.022    h-0.023h-0.045h-0.022l-0.112,0.022h-0.023l-0.044,0.022h-0.022h-0.045h-0.023h-0.067h-0.022h-0.045h-0.023l-0.044,0.022h-0.022    h-0.045h-0.023l-0.045-0.022h-0.022h-0.045h-0.022h-0.045h-0.023h-0.044h-0.022l-0.045-0.022h-0.022l-0.112-0.022h-0.022h-0.046    h-0.021l-0.046-0.022h-0.045l-0.022-0.021h-0.045h-0.023l-0.044-0.023h-0.022l-0.045-0.023h-0.023l-0.045-0.021h-0.022    l-0.045-0.022h-0.022l-0.045-0.022h-0.023l-0.044-0.022l-0.022-0.022l-0.045-0.023l0,0l-0.068-0.021l0,0l-0.066-0.023v-0.022    l-0.045-0.022h-0.023l-0.045-0.045l0,0l-0.067-0.021l0,0l-0.044-0.047h-0.023l-0.045-0.044h-0.022l-0.022-0.022l-0.022-0.022    l-0.046-0.022l-0.021-0.023l-0.023-0.021l-0.022-0.023l-0.045-0.021v-0.023l-0.044-0.021l-0.023-0.022l-0.023-0.022l-0.021-0.023    l-0.045-0.045l0,0l-0.045-0.045l-0.023-0.022l-0.021-0.022l-0.023-0.021l-0.022-0.023l-0.022-0.023l-0.021-0.044l-0.022-0.022    l-0.022-0.022l-0.023-0.022l-0.021-0.045h-0.023l-0.022-0.046v-0.022l-0.045-0.045v-0.021l-0.022-0.046h-0.021l-0.023-0.045    v-0.022l-0.045-0.045l0,0l-0.022-0.068l0,0L381.226,167.178L381.226,167.178z M293.583,347.007    c-5.02-7.002-9.432-12.157-13.304-16.638c-6.934-8.104-12.135-14.159-15.691-24.402c-1.846-4.841-3.264-10.401-4.098-17.043    c-0.899-7.158-1.282-12.291-1.599-16.771c-0.675-9.703-1.147-16.209-6.415-32.035l-0.068-0.202    c-1.441-4.479-2.229-7.745-2.769-10.019l-0.044-0.202c-2.23,2.341-4.503,4.638-6.8,6.935c-8.126,8.217-16.007,15.195-23.57,21.904    c-16.3,14.453-31.157,27.622-44.147,49.438l-1.352,2.25c-9.679,16.254-13.552,22.783-25.326,36.605l50.675,0.158    C230.616,347.098,262.179,347.232,293.583,347.007z" style="fill-rule:evenodd;clip-rule:evenodd;"/>
</g>
</g>
<g id="Layer_1"/>
</svg>