<?xml version="1.0" encoding="iso-8859-1"?>
<!-- Uploaded to: SVG Repo, www.svgrepo.com, Generator: SVG Repo Mixer Tools -->
<svg fill="#000000" height="800px" width="800px" version="1.1" id="Layer_1" xmlns="http://www.w3.org/2000/svg" xmlns:xlink="http://www.w3.org/1999/xlink" 
	 viewBox="0 0 512 512" xml:space="preserve">
<g>
	<g>
		<path d="M495.304,478.609h-26.447l-49.827-50.087l49.827-50.087h26.447c9.217,0,16.696-7.473,16.696-16.696
			c0-9.223-7.479-16.696-16.696-16.696c-112.903,0-177.887,0-200.348,0c-9.223,0-16.696,7.473-16.696,16.696
			c0,9.223,7.473,16.696,16.696,16.696h27.143l49.826,50.087l-49.826,50.087h-88.36V366.328
			c-17.441-1.971-34.346-6.987-50.087-14.926c-15.741,7.939-32.646,12.955-50.087,14.926v112.281H16.696
			C7.473,478.609,0,486.082,0,495.304C0,504.527,7.473,512,16.696,512c416.033,0,58.615,0,478.609,0
			c9.217,0,16.696-7.473,16.696-16.696C512,486.082,504.521,478.609,495.304,478.609z M369.205,378.435h52.546l-26.272,26.411
			L369.205,378.435z M369.205,478.609l26.273-26.411l26.272,26.411H369.205z"/>
	</g>
</g>
<g>
	<g>
		<path d="M300.413,111.842C297.771,49.723,246.413,0,183.652,0C121.008,0,69.739,49.544,66.923,111.503
			C25.835,130.954,0,173.635,0,217.043c0,94.06,106.369,150.004,183.652,95.511c77.335,54.53,183.652-1.503,183.652-95.511
			C367.304,171.848,340.886,131.016,300.413,111.842z"/>
	</g>
</g>
</svg>