<?xml version="1.0" encoding="iso-8859-1"?>
<!-- Uploaded to: SVG Repo, www.svgrepo.com, Generator: SVG Repo Mixer Tools -->
<svg height="800px" width="800px" version="1.1" id="Capa_1" xmlns="http://www.w3.org/2000/svg" xmlns:xlink="http://www.w3.org/1999/xlink" 
	 viewBox="0 0 318.74 318.74" xml:space="preserve">
<g>
	<g>
		<polygon style="fill:#010002;" points="0,222.469 14.609,222.469 14.609,68.603 14.609,57.725 25.487,57.725 272.399,57.725 
			272.399,41.201 0,41.201 		"/>
		<polygon style="fill:#010002;" points="41.098,227.908 41.098,225.194 41.098,222.469 41.098,82.793 272.399,82.793 
			275.119,82.793 277.838,82.793 297.892,82.793 297.892,68.603 277.838,68.603 275.119,68.603 272.399,68.603 25.487,68.603 
			25.487,222.469 25.487,225.194 25.487,227.908 25.487,249.876 41.098,249.876 		"/>
		<path style="fill:#010002;" d="M303.331,95.336h-5.439h-20.048h-2.72h-2.72H53.134v127.133v2.72v2.72v21.963v5.439v5.439v12.831
			v3.96H318.74v-3.96V95.336h-9.975H303.331z M69.451,260.754v-5.439v-5.439v-21.968v-2.72v-0.631h100.171v-2.089V208.24H69.451
			v-96.587h202.948h2.72h2.72h20.048h4.536v96.592h-4.536h-20.048h-2.72h-2.72h-4.873v14.229v2.089h7.593h2.72h20.048h4.536v30.758
			v5.439v0.473H69.451V260.754z"/>
		<path style="fill:#010002;" d="M122.863,131.685c2.263,0,4.46,0.272,6.581,0.751c0.245-1.033,0.402-2.127,0.402-3.285
			c0,0-3.089-10.122-6.897-10.122h-0.179c-3.807,0-6.897,10.122-6.897,10.122c0,1.159,0.158,2.252,0.402,3.285
			C118.403,131.957,120.6,131.685,122.863,131.685z"/>
		<path style="fill:#010002;" d="M155.383,154.682c-1.159,0-2.252,0.158-3.285,0.402c0.479,2.121,0.751,4.319,0.751,6.581
			c0,2.263-0.272,4.46-0.751,6.581c1.033,0.245,2.127,0.402,3.285,0.402c0,0,10.122-3.089,10.122-6.897v-0.179
			C165.505,157.765,155.383,154.682,155.383,154.682z"/>
		<path style="fill:#010002;" d="M122.863,191.651c-2.263,0-4.46-0.272-6.581-0.751c-0.245,1.033-0.402,2.127-0.402,3.285
			c0,0,3.089,10.122,6.897,10.122h0.179c3.807,0,6.897-10.122,6.897-10.122c0-1.159-0.158-2.252-0.402-3.285
			C127.328,191.373,125.131,191.651,122.863,191.651z"/>
		<path style="fill:#010002;" d="M98.311,178.815c-0.881,0.604-1.741,1.305-2.518,2.159c0,0-4.542,9.556-1.73,12.124l0.131,0.12
			c2.812,2.567,11.917-2.828,11.917-2.828c0.783-0.859,1.403-1.773,1.92-2.709C104.174,185.478,100.851,182.443,98.311,178.815z"/>
		<path style="fill:#010002;" d="M98.311,144.516c2.54-3.628,5.863-6.663,9.725-8.871c-0.517-0.93-1.137-1.849-1.92-2.709
			c0,0-9.105-5.396-11.917-2.828l-0.131,0.12c-2.812,2.567,1.73,12.124,1.73,12.124C96.571,143.211,97.43,143.912,98.311,144.516z"
			/>
		<path style="fill:#010002;" d="M147.42,144.516c0.881-0.604,1.74-1.305,2.518-2.159c0,0,4.542-9.556,1.73-12.124l-0.131-0.12
			c-2.812-2.567-11.917,2.828-11.917,2.828c-0.783,0.859-1.403,1.773-1.92,2.709C141.557,137.853,144.88,140.888,147.42,144.516z"/>
		<path style="fill:#010002;" d="M147.42,178.815c-2.54,3.628-5.863,6.663-9.725,8.871c0.517,0.93,1.137,1.849,1.92,2.709
			c0,0,9.105,5.396,11.917,2.828l0.131-0.12c2.812-2.567-1.73-12.124-1.73-12.124C149.161,180.12,148.302,179.418,147.42,178.815z"
			/>
		<path style="fill:#010002;" d="M92.883,161.665c0-2.263,0.272-4.46,0.751-6.581c-1.033-0.245-2.127-0.402-3.285-0.402
			c0,0-10.122,3.089-10.122,6.897v0.179c0,3.807,10.122,6.897,10.122,6.897c1.159,0,2.252-0.158,3.285-0.402
			C93.155,166.131,92.883,163.928,92.883,161.665z"/>
		<path style="fill:#010002;" d="M142.03,176.829c2.535-3.198,4.291-6.995,4.977-11.199c0.212-1.3,0.397-2.605,0.397-3.965
			s-0.185-2.665-0.397-3.965c-0.685-4.204-2.448-8.001-4.977-11.199c-1.653-2.089-3.579-3.938-5.82-5.396
			c-2.785-1.811-5.967-3.03-9.382-3.59c-1.3-0.212-2.605-0.397-3.965-0.397s-2.665,0.185-3.965,0.397
			c-3.416,0.56-6.598,1.773-9.382,3.59c-2.241,1.458-4.166,3.307-5.82,5.396c-2.535,3.198-4.291,6.995-4.977,11.199
			c-0.212,1.3-0.397,2.605-0.397,3.965s0.185,2.665,0.397,3.965c0.685,4.204,2.448,8.001,4.977,11.199
			c1.653,2.089,3.579,3.938,5.82,5.396c2.785,1.811,5.967,3.03,9.382,3.59c1.3,0.212,2.605,0.397,3.965,0.397
			s2.665-0.185,3.965-0.397c3.416-0.56,6.598-1.773,9.382-3.59C138.451,180.767,140.377,178.913,142.03,176.829z"/>
		<path style="fill:#010002;" d="M243.05,150.526c0.876-0.038,1.719-0.169,2.605-0.169c0.473,0,0.93,0.065,1.398,0.087
			c0.952,0.038,1.915,0.065,2.845,0.174c0.974,0.114,1.915,0.31,2.861,0.5c-0.212-4.074-3.557-7.326-7.68-7.326
			c-4.052,0-7.348,3.149-7.658,7.125c0.919-0.125,1.887-0.125,2.823-0.212C241.174,150.629,242.109,150.564,243.05,150.526z"/>
		<path style="fill:#010002;" d="M235.31,222.469c-1.757-11.857-11.912-21.017-24.247-21.017c-12.336,0-22.491,9.159-24.247,21.017
			c-0.131,0.897-0.239,1.8-0.277,2.72c-0.011,0.299-0.087,0.577-0.087,0.876c0,0.631,0.141,1.224,0.185,1.838
			c0.805,10.677,8.376,19.434,18.487,21.963c1.915,0.479,3.883,0.805,5.939,0.805s4.025-0.332,5.939-0.805
			c10.111-2.529,17.682-11.286,18.487-21.963c0.049-0.62,0.185-1.213,0.185-1.838c0-0.299-0.076-0.577-0.087-0.876
			C235.55,224.269,235.441,223.366,235.31,222.469z M231.079,227.908c-0.109,2.322-0.484,3.905-0.484,3.905
			c-0.517,0.702-1.169,1.284-1.904,1.773c-5.542,3.726-16.241,2.034-16.241,2.034c1.632-3.084-1.392-5.689-1.392-5.689
			c1.267-0.517,2.513-1.235,3.737-2.023c1.262-0.816,2.469-1.74,3.628-2.72c1.061-0.892,2.056-1.8,2.986-2.72
			c2.823-2.79,4.971-5.45,5.836-6.576c0.272-0.359,0.446-0.587,0.446-0.587c1.675,2.312,2.529,4.814,2.981,7.169
			c0.179,0.946,0.305,1.849,0.364,2.72C231.095,226.173,231.117,227.086,231.079,227.908z M191.178,222.469
			c0.386-2.034,2.366-10.34,9.295-13.092c0,0-0.005,0.288,0,0.723c0.011,1.887,0.179,7.337,1.605,12.368
			c0.267,0.941,0.593,1.844,0.952,2.72c0.402,0.979,0.87,1.882,1.409,2.72c0.12,0.185,0.201,0.402,0.326,0.577
			c0,0-4.112,0.12-4.357,4.357c0,0-3.095-1.316-6.135-4.933c-0.664-0.794-1.316-1.692-1.942-2.72
			c-0.109-0.174-0.201-0.381-0.31-0.566c-0.315-0.549-0.642-1.082-0.93-1.702C191.102,222.925,191.123,222.762,191.178,222.469z
			 M212.39,246.634c0,0-6.288,0.549-12.336-3.144l0.696-1.305l2.328-4.373c0,0,2.779,2.415,5.564,1.082l3.046,6.288L212.39,246.634z
			 M209.997,235.832c-0.919,1.724-3.258,2.268-5.227,1.218s-2.817-3.296-1.904-5.02c0.914-1.724,3.258-2.268,5.227-1.218
			C210.062,231.862,210.916,234.114,209.997,235.832z"/>
		<path style="fill:#010002;" d="M246.455,188.92c-0.723-0.011-1.42-0.076-2.148-0.076c-0.201,0-0.392,0.016-0.593,0.016
			c-0.925,0.005-1.811,0.044-2.72,0.065c-0.908,0.016-1.828,0.033-2.72,0.065v33.483v2.72v2.72v18.107
			c0,1.463,0.566,2.747,1.354,3.862c1.235,1.74,3.166,2.953,5.455,2.953c2.29,0,4.221-1.213,5.455-2.953
			c0.789-1.115,1.354-2.399,1.354-3.862v-18.112v-2.72v-2.72v-33.363c-0.903-0.044-1.811-0.065-2.72-0.092
			C248.266,188.986,247.369,188.931,246.455,188.92z"/>
		<path style="fill:#010002;" d="M196.655,189.834c0.267,0,0.582-0.049,0.946-0.147c6.516-1.833,22.164-5.57,41.631-6.162
			c1.207-0.038,2.41-0.076,3.644-0.087c0.484-0.005,0.946-0.033,1.436-0.033c1.001,0,2.061,0.076,3.084,0.098
			c1.191,0.022,2.399,0.065,3.612,0.114c6.891,0.283,14.071,1.05,21.403,2.442c0.908,0.174,1.806,0.283,2.72,0.479
			c0.903,0.19,1.811,0.435,2.72,0.647c3.035,0.707,6.075,1.458,9.121,2.415c0.381,0.12,0.713,0.174,0.995,0.174
			c1.05,0,1.343-0.805,0.571-2.094c-1.985-3.302-5.668-8.887-10.688-14.473c-0.865-0.963-1.773-1.92-2.72-2.872
			c-0.876-0.881-1.779-1.746-2.72-2.594c-5.624-5.091-12.379-9.453-20.005-11.156c-0.887-0.196-1.773-0.402-2.681-0.528
			c-0.995-0.136-2.012-0.174-3.035-0.207c-0.343-0.011-0.674-0.065-1.023-0.065c-0.734,0-1.425,0.06-2.143,0.087
			c-1.033,0.038-2.067,0.087-3.062,0.179c-0.93,0.087-1.838,0.212-2.741,0.348c-20.222,3.051-33.042,17.492-41.636,31.324
			C195.268,189.029,195.556,189.834,196.655,189.834z"/>
	</g>
</g>
</svg>